<svg width="50" height="50" viewBox="0 0 50 50" fill="none" xmlns="http://www.w3.org/2000/svg">
<rect width="50" height="50" rx="10" fill="#1A49BA"/>
<path d="M25 16C24.2044 16 23.4413 15.6839 22.8787 15.1213C22.3161 14.5587 22 13.7956 22 13C22 12.2044 22.3161 11.4413 22.8787 10.8787C23.4413 10.3161 24.2044 10 25 10V10C25.7956 10 26.5587 10.3161 27.1213 10.8787C27.6839 11.4413 28 12.2044 28 13C28 13.7956 27.6839 14.5587 27.1213 15.1213C26.5587 15.6839 25.7956 16 25 16V16Z" stroke="white" stroke-width="2" stroke-miterlimit="10" stroke-linecap="round" stroke-linejoin="round"/>
<path d="M20 26V22C20 21.2044 20.3161 20.4413 20.8787 19.8787C21.4413 19.3161 22.2044 19 23 19H27C27.7956 19 28.5587 19.3161 29.1213 19.8787C29.6839 20.4413 30 21.2044 30 22V26" stroke="white" stroke-width="2" stroke-miterlimit="10" stroke-linecap="round" stroke-linejoin="round"/>
<path d="M35 26H15V30H35V26Z" stroke="white" stroke-width="2" stroke-miterlimit="10" stroke-linecap="round" stroke-linejoin="round"/>
<path d="M32 30V40H18V30" stroke="white" stroke-width="2" stroke-miterlimit="10" stroke-linecap="round" stroke-linejoin="round"/>
</svg>
