<svg width="50" height="50" viewBox="0 0 50 50" fill="none" xmlns="http://www.w3.org/2000/svg">
<rect width="50" height="50" rx="10" fill="#37C99E"/>
<path d="M28.5 30.5L30.75 32.75C31.2139 33.2143 31.4744 33.8437 31.4744 34.5C31.4744 35.1563 31.2139 35.7857 30.75 36.25V36.25" stroke="white" stroke-width="2" stroke-miterlimit="10" stroke-linecap="round" stroke-linejoin="round"/>
<path d="M10 23V11H20.1C20.4009 11.0002 20.7015 11.0196 21 11.058" stroke="white" stroke-width="2" stroke-miterlimit="10" stroke-linecap="round" stroke-linejoin="round"/>
<path d="M12.75 25.25L12.2501 25.7499C11.2835 26.7165 11.2835 28.2835 12.2501 29.2501C13.2166 30.2166 14.7837 30.2166 15.7503 29.2501L16.2502 28.7502C17.2167 27.7836 17.2167 26.2165 16.2502 25.25C15.2836 24.2834 13.7166 24.2834 12.75 25.25Z" stroke="white" stroke-width="2" stroke-miterlimit="10" stroke-linecap="round" stroke-linejoin="round"/>
<path d="M16.3884 28.6129L15.6134 29.3879C14.6468 30.3544 14.6468 31.9215 15.6134 32.888C16.5799 33.8546 18.147 33.8546 19.1135 32.888L19.8885 32.113C20.8551 31.1465 20.8551 29.5794 19.8885 28.6129C18.922 27.6463 17.3549 27.6463 16.3884 28.6129Z" stroke="white" stroke-width="2" stroke-miterlimit="10" stroke-linecap="round" stroke-linejoin="round"/>
<path d="M19.6133 32.3852L19.1134 32.8852C18.1468 33.8517 18.1468 35.4188 19.1134 36.3853C20.0799 37.3519 21.647 37.3519 22.6135 36.3853L23.1135 35.8854C24.08 34.9189 24.08 33.3518 23.1135 32.3852C22.1469 31.4187 20.5798 31.4187 19.6133 32.3852Z" stroke="white" stroke-width="2" stroke-miterlimit="10" stroke-linecap="round" stroke-linejoin="round"/>
<path d="M23.1523 35.847L22.6326 36.3667C21.8043 37.195 21.8043 38.5379 22.6326 39.3662L22.6333 39.3669C23.4616 40.1952 24.8045 40.1952 25.6328 39.3669L26.1526 38.8472C26.9809 38.0189 26.9809 36.676 26.1526 35.8477L26.1519 35.847C25.3236 35.0187 23.9806 35.0187 23.1523 35.847Z" stroke="white" stroke-width="2" stroke-miterlimit="10" stroke-linecap="round" stroke-linejoin="round"/>
<path d="M31.9984 27L35.0234 30.025C35.2534 30.2548 35.4357 30.5276 35.5602 30.8278C35.6846 31.1281 35.7487 31.45 35.7487 31.775C35.7487 32.1 35.6846 32.4219 35.5602 32.7222C35.4357 33.0224 35.2534 33.2952 35.0234 33.525C34.7937 33.7549 34.5209 33.9373 34.2206 34.0617C33.9203 34.1862 33.5985 34.2502 33.2734 34.2502C32.9484 34.2502 32.6265 34.1862 32.3263 34.0617C32.026 33.9373 31.7532 33.7549 31.5234 33.525" stroke="white" stroke-width="2" stroke-miterlimit="10" stroke-linecap="round" stroke-linejoin="round"/>
<path d="M34.75 29.75C35.2143 30.2139 35.8437 30.4744 36.5 30.4744C37.1563 30.4744 37.7857 30.2139 38.25 29.75C38.7139 29.2857 38.9744 28.6563 38.9744 28C38.9744 27.3437 38.7139 26.7143 38.25 26.25L29 17" stroke="white" stroke-width="2" stroke-miterlimit="10" stroke-linecap="round" stroke-linejoin="round"/>
<path d="M29 17L22.1 22.173C21.7685 22.4215 21.3745 22.5728 20.9619 22.6101C20.5494 22.6473 20.1346 22.5691 19.764 22.384V22.384C19.4479 22.2259 19.1739 21.995 18.9645 21.7103C18.7552 21.4255 18.6165 21.0951 18.56 20.7462C18.5034 20.3974 18.5306 20.0401 18.6393 19.7038C18.7479 19.3675 18.935 19.0618 19.185 18.812L24.95 13.05C25.6 12.4 26.3718 11.8844 27.2211 11.5327C28.0704 11.1809 28.9807 10.9999 29.9 11H40V23" stroke="white" stroke-width="2" stroke-miterlimit="10" stroke-linecap="round" stroke-linejoin="round"/>
</svg>
