<svg width="82" height="23" viewBox="0 0 82 23" fill="none" xmlns="http://www.w3.org/2000/svg">
<path d="M9.696 18.36C14.976 18.36 17.232 14.76 17.784 12.408L14.16 11.376C13.824 12.6 12.648 14.568 9.696 14.568C7.152 14.568 4.8 12.72 4.8 9.528C4.8 5.952 7.368 4.32 9.648 4.32C12.648 4.32 13.728 6.312 13.992 7.488L17.568 6.36C17.016 3.912 14.76 0.623999 9.648 0.623999C4.896 0.623999 0.864 4.224 0.864 9.528C0.864 14.832 4.8 18.36 9.696 18.36ZM25.2441 15C23.8761 15 22.5561 14.016 22.5561 12.024C22.5561 10.008 23.8761 9.072 25.2441 9.072C26.6361 9.072 27.9321 10.008 27.9321 12.024C27.9321 14.04 26.6361 15 25.2441 15ZM25.2441 5.712C21.6921 5.712 18.9081 8.328 18.9081 12.024C18.9081 15.72 21.6921 18.36 25.2441 18.36C28.8201 18.36 31.5801 15.72 31.5801 12.024C31.5801 8.328 28.8201 5.712 25.2441 5.712ZM41.6089 18H45.1129C45.0889 17.808 44.9929 16.944 44.9929 15.864V6.072H41.3449V12.864C41.3449 14.064 40.5769 14.904 39.3529 14.904C38.0569 14.904 37.4329 13.992 37.4329 12.84V6.072H33.7849V13.608C33.7849 16.152 35.4169 18.264 38.3209 18.264C39.5209 18.264 40.8889 17.832 41.5129 16.8C41.5129 17.112 41.5609 17.784 41.6089 18ZM55.7858 6.072C55.5458 6 55.1858 5.952 54.8258 5.952C53.8658 5.952 52.3538 6.336 51.7298 7.68V6.072H48.2018V18H51.8498V12.792C51.8498 10.416 53.1698 9.552 54.6338 9.552C54.9938 9.552 55.3778 9.576 55.7858 9.672V6.072ZM57.1084 14.616C57.2044 15.936 58.4044 18.36 62.1484 18.36C65.3404 18.36 66.9004 16.368 66.9004 14.328C66.9004 12.576 65.7004 11.088 63.2284 10.584L61.6444 10.272C61.1164 10.176 60.7084 9.888 60.7084 9.384C60.7084 8.76 61.3084 8.352 62.0044 8.352C63.1084 8.352 63.6124 9.024 63.7084 9.816L66.7324 9.264C66.6124 7.872 65.4124 5.712 61.9564 5.712C59.2924 5.712 57.3724 7.488 57.3724 9.672C57.3724 11.352 58.3804 12.792 60.9244 13.344L62.2924 13.656C63.1804 13.848 63.4684 14.208 63.4684 14.64C63.4684 15.168 63.0124 15.672 62.0764 15.672C60.8284 15.672 60.2524 14.88 60.2044 14.064L57.1084 14.616ZM73.7177 22.584L81.0617 6.072H77.1977L74.5577 12.456L71.6537 6.072H67.5737L72.5897 16.392L69.8777 22.584H73.7177Z" fill="white"/>
</svg>
