<svg width="42" height="40" viewBox="0 0 42 40" fill="none" xmlns="http://www.w3.org/2000/svg">
<g clip-path="url(#clip0_1613_924)">
<path fill-rule="evenodd" clip-rule="evenodd" d="M1.55221 11.9698C1.09606 11.8199 0.625 12.1546 0.625 12.6286V38.3315C0.625 39.2521 1.38193 39.9981 2.31565 39.9981H8.51472C9.44846 39.9981 10.2054 39.2521 10.2054 38.3315V16.4149C10.2054 15.4584 9.58449 14.6092 8.664 14.3067L1.55221 11.9698Z" fill="#1E2432"/>
<path fill-rule="evenodd" clip-rule="evenodd" d="M16.125 17.7223C16.125 17.2483 16.5961 16.9136 17.0522 17.0635L20.9151 18.3329L24.7781 17.0635C25.2343 16.9136 25.7053 17.2483 25.7053 17.7223V38.3328C25.7053 39.2532 24.9485 39.9993 24.0147 39.9993H17.8157C16.8819 39.9993 16.125 39.2532 16.125 38.3328V17.7223Z" fill="#1E2432"/>
<path fill-rule="evenodd" clip-rule="evenodd" d="M33.1625 14.3067C32.2421 14.6092 31.6211 15.4584 31.6211 16.4149V38.3315C31.6211 39.2521 32.3781 39.9981 33.3119 39.9981H39.5108C40.4446 39.9981 41.2016 39.2521 41.2016 38.3315V12.6286C41.2016 12.1546 40.7304 11.8199 40.2744 11.9698L33.1625 14.3067Z" fill="#1E2432"/>
<path d="M20.9129 12.7777L1.39568 6.36429C0.935436 6.21308 0.625 5.78846 0.625 5.31022V2.2222C0.625 0.994915 1.63424 0 2.8792 0H38.9465C40.1913 0 41.2007 0.994915 41.2007 2.2222V5.31022C41.2007 5.78846 40.8903 6.21308 40.4301 6.36429L20.9129 12.7777Z" fill="#1E2432"/>
</g>
<defs>
<clipPath id="clip0_1613_924">
<rect width="40.5556" height="40" fill="white" transform="translate(0.625)"/>
</clipPath>
</defs>
</svg>
