<svg width="40" height="40" viewBox="0 0 40 40" fill="none" xmlns="http://www.w3.org/2000/svg">
<g clip-path="url(#clip0_1613_914)">
<path d="M33.8027 33.8018H27.9245V24.5963C27.9245 22.4011 27.8854 19.5753 24.8673 19.5753C21.8057 19.5753 21.3373 21.967 21.3373 24.4365V33.8012H15.459V14.8709H21.1021V17.4579H21.1811C21.7459 16.4923 22.5619 15.698 23.5424 15.1595C24.5229 14.621 25.6311 14.3585 26.7489 14.4C32.7067 14.4 33.8052 18.3188 33.8052 23.417L33.8027 33.8018ZM8.82649 12.2833C8.15182 12.2834 7.49224 12.0834 6.93121 11.7087C6.37017 11.334 5.93289 10.8013 5.67459 10.178C5.41629 9.55477 5.3486 8.86891 5.4801 8.20717C5.6116 7.54544 5.93639 6.93757 6.41337 6.46042C6.89035 5.98327 7.49811 5.65827 8.1598 5.52653C8.82148 5.39479 9.50736 5.46222 10.1307 5.7203C10.7541 5.97837 11.2869 6.41549 11.6618 6.9764C12.0368 7.5373 12.237 8.19678 12.2371 8.87146C12.2372 9.31942 12.149 9.76301 11.9776 10.1769C11.8063 10.5908 11.5551 10.9669 11.2384 11.2837C10.9217 11.6005 10.5457 11.8519 10.1318 12.0234C9.718 12.1949 9.27445 12.2832 8.82649 12.2833V12.2833ZM11.7656 33.8018H5.88126V14.8709H11.7656V33.8018ZM36.7333 0.0020925H2.92747C2.16018 -0.00656644 1.4208 0.289754 0.871867 0.82594C0.322937 1.36213 0.00936443 2.09431 0 2.8616V36.8076C0.00904393 37.5753 0.322432 38.308 0.871343 38.8447C1.42025 39.3815 2.1598 39.6784 2.92747 39.6702H36.7333C37.5025 39.6799 38.2441 39.3838 38.7952 38.8471C39.3462 38.3104 39.6617 37.5768 39.6724 36.8076V2.85915C39.6614 2.09034 39.3457 1.35732 38.7946 0.821149C38.2435 0.284977 37.5021 -0.0104974 36.7333 -0.000357743" fill="#1E2432"/>
</g>
<defs>
<clipPath id="clip0_1613_914">
<rect width="40" height="40" fill="white"/>
</clipPath>
</defs>
</svg>
