<svg width="41" height="40" viewBox="0 0 41 40" fill="none" xmlns="http://www.w3.org/2000/svg">
<path d="M40.6266 17.9067H28.4373L38.9933 11.8133L36.8999 8.18667L26.3426 14.28L32.4359 3.72667L28.8093 1.63333L22.7146 12.184V0H18.5253V12.1853L12.4306 1.63333L8.80262 3.72667L14.8959 14.2773L4.34128 8.18667L2.24661 11.8133L12.8026 17.9067H0.613281V22.0947H12.8013L2.24661 28.188L4.33995 31.8147L14.8973 25.7213L8.80262 36.2747L12.4293 38.368L18.5253 27.816V40H22.7146V27.5547L28.9213 38.3013L32.3226 36.3387L26.1146 25.5893L36.8973 31.8133L38.9919 28.1867L28.4373 22.0933H40.6253V17.9067H40.6266V17.9067ZM20.6199 25.6933C19.8721 25.6934 19.1316 25.5462 18.4406 25.2601C17.7497 24.974 17.1219 24.5546 16.593 24.0259C16.0642 23.4971 15.6446 22.8694 15.3584 22.1785C15.0721 21.4877 14.9247 20.7472 14.9246 19.9993C14.9245 19.2515 15.0717 18.511 15.3578 17.82C15.6439 17.1291 16.0633 16.5013 16.5921 15.9724C17.1208 15.4435 17.7485 15.024 18.4394 14.7377C19.1303 14.4515 19.8708 14.3041 20.6186 14.304C22.1289 14.3038 23.5775 14.9036 24.6455 15.9715C25.7136 17.0393 26.3138 18.4877 26.3139 19.998C26.3141 21.5083 25.7143 22.9569 24.6465 24.0249C23.5787 25.093 22.1303 25.6932 20.6199 25.6933V25.6933Z" fill="#1E2432"/>
</svg>
