<svg width="36" height="40" viewBox="0 0 36 40" fill="none" xmlns="http://www.w3.org/2000/svg">
<g clip-path="url(#clip0_1613_922)">
<g clip-path="url(#clip1_1613_922)">
<path fill-rule="evenodd" clip-rule="evenodd" d="M0.847656 2.55206C0.847656 1.13425 2.12369 0 3.6124 0H33.032C34.5915 0 35.7967 1.13425 35.7967 2.55206V19.8494C35.7967 24.3155 33.1029 28.9943 27.7861 33.8857C24.0289 37.2885 20.2717 39.5569 20.13 39.6278C19.2083 40.124 18.0741 40.124 17.1524 39.6278C17.1257 39.6009 16.9634 39.5 16.6917 39.3309C15.531 38.6086 12.3719 36.6428 9.21275 33.8857C3.68329 29.0651 0.847656 24.3155 0.847656 19.7785V2.55206ZM8.50393 8.57742L15.8057 27.5762H20.697L28.0697 8.57742H23.5327L18.4995 21.9049H18.3577L13.2536 8.57742H8.50393Z" fill="#1E2432"/>
</g>
</g>
<defs>
<clipPath id="clip0_1613_922">
<rect width="35" height="40" fill="white" transform="translate(0.847656)"/>
</clipPath>
<clipPath id="clip1_1613_922">
<rect width="147.692" height="40" fill="white" transform="translate(0.847656)"/>
</clipPath>
</defs>
</svg>
