<svg width="170" height="90" viewBox="0 0 170 90" fill="none" xmlns="http://www.w3.org/2000/svg">
<rect opacity="0.2" y="32" width="105" height="40" rx="20" fill="#009AFF"/>
<path d="M25.75 53.878C25.75 52.394 24.798 51.582 23.034 51.232L21.312 50.882C20.584 50.742 19.954 50.448 19.954 49.762C19.954 49.062 20.542 48.474 21.578 48.474C22.642 48.474 23.37 49.188 23.44 50.238H25.596C25.456 48.138 23.804 46.822 21.55 46.822C19.38 46.822 17.798 48.11 17.798 49.902C17.798 51.568 18.974 52.394 20.5 52.688L22.152 53.01C23.006 53.178 23.496 53.556 23.496 54.186C23.496 54.998 22.726 55.474 21.648 55.474C20.346 55.474 19.632 54.76 19.576 53.654H17.42C17.574 55.782 19.156 57.14 21.69 57.14C24.21 57.14 25.75 55.796 25.75 53.878ZM33.7658 57H36.0478L32.2958 46.948H29.9718L26.1918 57H28.3338L29.1038 54.844H33.0098L33.7658 57ZM31.0778 49.272L32.4218 53.15H29.7058L31.0778 49.272ZM44.311 46.948H42.183L39.579 54.522L37.031 46.948H34.735L38.347 57H40.671L44.311 46.948ZM52.2238 55.152H47.5898V52.744H51.7058V50.91H47.5898V48.796H52.1258V46.948H45.4618V57H52.2238V55.152ZM63.0398 55.264H59.3858L60.8138 53.724C62.4658 52.058 62.8858 51.33 62.8858 50.182C62.8858 48.586 61.4998 47.396 59.6098 47.396C57.5798 47.396 56.1518 48.74 56.1518 50.63H58.0418C58.0418 49.706 58.6018 49.132 59.5118 49.132C60.3378 49.132 60.8558 49.65 60.8558 50.42C60.8558 51.246 60.3938 51.834 59.3018 52.954L56.4318 55.894V57H63.0398V55.264ZM64.2104 52.282C64.2104 55.404 65.4984 57.14 67.8644 57.14C70.2304 57.14 71.5324 55.404 71.5324 52.282C71.5324 49.146 70.2024 47.396 67.8644 47.396C65.5264 47.396 64.2104 49.146 64.2104 52.282ZM66.2124 52.282C66.2124 50.238 66.8004 49.132 67.8644 49.132C68.9424 49.132 69.5304 50.238 69.5304 52.282C69.5304 54.312 68.9424 55.404 67.8644 55.404C66.7724 55.404 66.2124 54.312 66.2124 52.282ZM75.568 53.332C77.318 53.332 78.634 52.002 78.634 50.392C78.634 48.768 77.318 47.452 75.568 47.452C73.804 47.452 72.502 48.768 72.502 50.392C72.502 52.002 73.804 53.332 75.568 53.332ZM77.892 57L83.268 47.536H81.714L76.338 57H77.892ZM75.568 51.96C74.784 51.96 74.084 51.428 74.084 50.392C74.084 49.356 74.784 48.824 75.568 48.824C76.366 48.824 77.038 49.356 77.038 50.392C77.038 51.428 76.366 51.96 75.568 51.96ZM84.276 57.126C86.04 57.126 87.342 55.796 87.342 54.186C87.342 52.562 86.04 51.246 84.276 51.246C82.512 51.246 81.21 52.562 81.21 54.186C81.21 55.796 82.512 57.126 84.276 57.126ZM84.276 55.74C83.492 55.74 82.792 55.222 82.792 54.186C82.792 53.136 83.492 52.618 84.276 52.618C85.074 52.618 85.76 53.136 85.76 54.186C85.76 55.222 85.074 55.74 84.276 55.74Z" fill="#009AFF"/>
<path d="M142.407 67.1422C141.234 64.2305 140.411 62.3933 139.9 62.4891C139.39 62.5849 139.344 64.5621 139.906 67.7267C140.252 69.5838 140.707 71.4189 141.269 73.2226C141.59 74.2533 141.951 75.3208 142.361 76.418L143.028 78.1081C143.199 78.653 143.485 79.1547 143.867 79.5793C144.249 80.0038 144.718 80.3413 145.241 80.5687C145.758 80.75 146.315 80.7835 146.85 80.6653C147.116 80.6021 147.377 80.5173 147.63 80.4118L148.183 80.1652C148.685 79.9357 149.183 79.7242 149.664 79.5088C150.61 79.056 151.534 78.6173 152.408 78.1958C154.166 77.3457 155.711 76.5243 157.027 75.7568C159.584 74.2709 161.079 73.1563 160.829 72.6213C160.578 72.0863 158.735 72.4188 155.88 73.2462C154.451 73.6689 152.784 74.2282 150.939 74.871C150.085 75.2027 149.18 75.5515 148.246 75.9034C149.301 74.3606 150.191 72.7114 150.902 70.9828C151.778 68.8782 152.447 66.6933 152.9 64.459C153.604 61.2984 153.927 58.0648 153.862 54.8274C153.615 45.7016 150.446 36.8961 144.821 29.7059C141.748 25.7554 138.046 22.3384 133.862 19.5922C129.914 16.9943 125.553 15.0873 120.965 13.953C119.891 13.693 118.804 13.4874 117.709 13.3368C117.169 13.266 116.651 13.1812 116.052 13.1636C115.453 13.1459 114.949 13.083 114.451 13.0779C112.47 13.0937 110.497 13.3231 108.566 13.7622C105.339 14.4193 102.229 15.5601 99.3424 17.1461C94.5265 19.8813 92.4915 22.7335 92.7189 22.9432C92.9462 23.1529 95.4139 20.9508 100.24 18.8583C103.053 17.625 106.014 16.7641 109.049 16.2974C110.841 16.0222 112.657 15.9293 114.468 16.02C114.931 16.0408 115.393 16.085 115.852 16.1524C116.316 16.2255 116.809 16.3423 117.298 16.4303C118.281 16.5882 119.261 16.8868 120.26 17.1425C124.425 18.379 128.361 20.2874 131.911 22.7923C135.599 25.398 138.851 28.571 141.547 32.1936C146.356 38.6786 149.043 46.4916 149.239 54.5627C149.379 59.509 148.613 64.4391 146.979 69.1097C146.214 71.1466 145.573 72.702 145.074 73.8267L144.405 72.2304L142.36 67.1414" fill="#009AFF"/>
</svg>
