<svg width="50" height="50" viewBox="0 0 50 50" fill="none" xmlns="http://www.w3.org/2000/svg">
<rect width="50" height="50" rx="10" fill="#FFDA54"/>
<path d="M32 39L24.944 40L18 39V28L24.944 29L32 28V39Z" stroke="white" stroke-width="2" stroke-miterlimit="10" stroke-linecap="round" stroke-linejoin="round"/>
<path d="M24.9414 20C23.6153 20 22.3436 19.4732 21.4059 18.5355C20.4682 17.5979 19.9414 16.3261 19.9414 15V15C19.9414 13.6739 20.4682 12.4021 21.4059 11.4645C22.3436 10.5268 23.6153 10 24.9414 10V10C25.598 10 26.2482 10.1293 26.8548 10.3806C27.4615 10.6319 28.0126 11.0002 28.4769 11.4645C28.9412 11.9288 29.3095 12.48 29.5608 13.0866C29.8121 13.6932 29.9414 14.3434 29.9414 15V15C29.9414 16.3261 29.4146 17.5979 28.4769 18.5355C27.5393 19.4732 26.2675 20 24.9414 20V20Z" stroke="white" stroke-width="2" stroke-miterlimit="10" stroke-linecap="round" stroke-linejoin="round"/>
<path d="M21.9986 34L12.0236 36.494C11.8406 36.5397 11.6484 36.5328 11.4692 36.4739C11.2899 36.415 11.131 36.3066 11.0108 36.1613C10.8905 36.0159 10.8138 35.8395 10.7896 35.6524C10.7653 35.4654 10.7944 35.2752 10.8736 35.104L15.4626 25.162C15.6227 24.8151 15.8788 24.5213 16.2007 24.3154C16.5225 24.1094 16.8966 24 17.2786 24H32.7136C33.0969 23.9999 33.4721 24.11 33.7945 24.3171C34.117 24.5241 34.3732 24.8195 34.5326 25.168L39.0776 35.107C39.1561 35.2783 39.1845 35.4683 39.1596 35.6551C39.1347 35.8419 39.0576 36.0178 38.9371 36.1627C38.8166 36.3075 38.6576 36.4154 38.4785 36.4738C38.2994 36.5323 38.1074 36.5389 37.9246 36.493L27.9986 34" stroke="white" stroke-width="2" stroke-miterlimit="10" stroke-linecap="round" stroke-linejoin="round"/>
</svg>
