<svg width="387" height="290" viewBox="0 0 387 290" fill="none" xmlns="http://www.w3.org/2000/svg">
<g filter="url(#filter0_d_1613_942)">
<rect x="20" y="16" width="347" height="250" rx="10" fill="white"/>
</g>
<path opacity="0.72" d="M56.96 142.58C56.96 143.74 57.58 144.52 58.64 144.52C59.52 144.52 60.12 143.98 60.12 143.2C60.12 142.5 59.58 141.94 58.82 141.94C58.68 141.94 58.52 141.96 58.36 142.02C58.54 141.14 59.34 140.6 60.46 140.64V139.56C58.46 139.4 56.96 140.86 56.96 142.58ZM61.22 142.58C61.22 143.74 61.84 144.52 62.9 144.52C63.76 144.52 64.38 143.98 64.38 143.2C64.38 142.5 63.82 141.94 63.08 141.94C62.94 141.94 62.78 141.96 62.62 142.02C62.8 141.14 63.6 140.6 64.72 140.64V139.56C62.72 139.4 61.22 140.86 61.22 142.58ZM79.9905 154V152.02H73.4905V139.64H71.2905V154H79.9905ZM86.1369 154.2C89.1369 154.2 91.3369 151.84 91.3369 148.7C91.3369 145.56 89.1369 143.2 86.1369 143.2C83.1369 143.2 80.9369 145.56 80.9369 148.7C80.9369 151.84 83.1369 154.2 86.1369 154.2ZM86.1369 152.42C84.3969 152.42 83.0369 151.02 83.0369 148.7C83.0369 146.38 84.3969 145 86.1369 145C87.8769 145 89.2569 146.38 89.2569 148.7C89.2569 151.02 87.8769 152.42 86.1369 152.42ZM95.4161 148.58C95.4161 146.24 97.0761 145.24 99.3561 145.36V143.26C97.6161 143.26 96.0161 144.18 95.2761 145.64V143.4H93.3961V154H95.4161V148.58ZM105.276 154.2C107.776 154.2 109.596 152.78 110.116 150.42H108.116C107.776 151.8 106.736 152.62 105.236 152.62C103.456 152.62 102.376 151.36 102.216 149.2H110.116C110.476 145.76 108.376 143.2 105.216 143.2C102.296 143.2 100.156 145.5 100.156 148.64C100.156 151.98 102.216 154.2 105.276 154.2ZM105.176 144.72C106.816 144.72 107.876 145.9 107.976 147.86H102.236C102.456 145.88 103.556 144.72 105.176 144.72ZM114.283 154V147.92C114.283 146.14 115.383 144.98 116.783 144.98C118.263 144.98 119.043 146.02 119.043 147.78V154H121.063V147.92C121.063 146.14 122.183 144.98 123.563 144.98C125.043 144.98 125.823 146.02 125.823 147.78V154H127.843V147.14C127.843 144.62 126.443 143.2 124.263 143.2C122.643 143.2 121.423 144.04 120.683 145.4C120.203 144 119.023 143.2 117.463 143.2C116.003 143.2 114.863 143.94 114.143 145.16V143.4H112.263V154H114.283ZM137.184 140.94C137.184 140.16 136.584 139.6 135.724 139.6C134.864 139.6 134.244 140.16 134.244 140.94C134.244 141.7 134.864 142.28 135.724 142.28C136.584 142.28 137.184 141.7 137.184 140.94ZM136.744 154V143.4H134.724V154H136.744ZM149.668 148.7C149.668 145.5 147.808 143.2 144.988 143.2C143.488 143.2 142.188 143.98 141.428 145.34V143.4H139.548V157.86H141.568V152.2C142.328 153.48 143.548 154.2 144.988 154.2C147.828 154.2 149.668 151.9 149.668 148.7ZM147.568 148.7C147.568 151.08 146.308 152.4 144.568 152.4C142.868 152.4 141.568 151.04 141.568 148.7C141.568 146.32 142.888 144.98 144.568 144.98C146.308 144.98 147.568 146.32 147.568 148.7ZM160.116 150.84C160.116 149.32 159.116 148.4 157.016 148.02L155.216 147.68C153.936 147.44 153.396 147.04 153.396 146.18C153.396 145.26 154.256 144.72 155.536 144.72C156.956 144.72 157.896 145.46 158.016 146.74H159.956C159.776 144.56 158.056 143.2 155.516 143.2C153.056 143.2 151.436 144.5 151.436 146.36C151.436 147.96 152.536 148.96 154.496 149.34L156.216 149.66C157.536 149.92 158.076 150.3 158.076 151.18C158.076 152.18 157.136 152.68 155.716 152.68C154.096 152.68 153.036 151.86 152.956 150.54H151.016C151.216 152.82 152.876 154.2 155.676 154.2C158.496 154.2 160.116 152.92 160.116 150.84ZM168.942 149.64C168.942 151.3 167.842 152.42 166.482 152.42C165.162 152.42 164.242 151.66 164.242 149.82V143.4H162.222V150.22C162.222 152.94 163.702 154.2 165.842 154.2C167.282 154.2 168.522 153.42 169.082 152.32V154H170.962V143.4H168.942V149.64ZM175.787 154V147.92C175.787 146.14 176.887 144.98 178.287 144.98C179.767 144.98 180.547 146.02 180.547 147.78V154H182.567V147.92C182.567 146.14 183.687 144.98 185.067 144.98C186.547 144.98 187.327 146.02 187.327 147.78V154H189.347V147.14C189.347 144.62 187.947 143.2 185.767 143.2C184.147 143.2 182.927 144.04 182.187 145.4C181.707 144 180.527 143.2 178.967 143.2C177.507 143.2 176.367 143.94 175.647 145.16V143.4H173.767V154H175.787ZM195.468 148.7C195.468 151.88 197.308 154.2 200.168 154.2C201.668 154.2 202.948 153.44 203.708 152.1V154H205.588V139.64H203.568V145.22C202.828 143.92 201.588 143.2 200.168 143.2C197.308 143.2 195.468 145.48 195.468 148.7ZM197.568 148.7C197.568 146.3 198.808 144.98 200.568 144.98C202.248 144.98 203.568 146.28 203.568 148.66C203.568 151 202.288 152.4 200.568 152.4C198.808 152.4 197.568 151.06 197.568 148.7ZM212.836 154.2C215.836 154.2 218.036 151.84 218.036 148.7C218.036 145.56 215.836 143.2 212.836 143.2C209.836 143.2 207.636 145.56 207.636 148.7C207.636 151.84 209.836 154.2 212.836 154.2ZM212.836 152.42C211.096 152.42 209.736 151.02 209.736 148.7C209.736 146.38 211.096 145 212.836 145C214.576 145 215.956 146.38 215.956 148.7C215.956 151.02 214.576 152.42 212.836 152.42ZM222.135 154V139.64H220.095V154H222.135ZM229.299 154.2C231.799 154.2 233.619 152.78 234.139 150.42H232.139C231.799 151.8 230.759 152.62 229.259 152.62C227.479 152.62 226.399 151.36 226.239 149.2H234.139C234.499 145.76 232.399 143.2 229.239 143.2C226.319 143.2 224.179 145.5 224.179 148.64C224.179 151.98 226.239 154.2 229.299 154.2ZM229.199 144.72C230.839 144.72 231.899 145.9 231.999 147.86H226.259C226.479 145.88 227.579 144.72 229.199 144.72ZM238.307 148.58C238.307 146.24 239.967 145.24 242.247 145.36V143.26C240.507 143.26 238.907 144.18 238.167 145.64V143.4H236.287V154H238.307V148.58ZM256.425 150.84C256.425 149.32 255.425 148.4 253.325 148.02L251.525 147.68C250.245 147.44 249.705 147.04 249.705 146.18C249.705 145.26 250.565 144.72 251.845 144.72C253.265 144.72 254.205 145.46 254.325 146.74H256.265C256.085 144.56 254.365 143.2 251.825 143.2C249.365 143.2 247.745 144.5 247.745 146.36C247.745 147.96 248.845 148.96 250.805 149.34L252.525 149.66C253.845 149.92 254.385 150.3 254.385 151.18C254.385 152.18 253.445 152.68 252.025 152.68C250.405 152.68 249.345 151.86 249.265 150.54H247.325C247.525 152.82 249.185 154.2 251.985 154.2C254.805 154.2 256.425 152.92 256.425 150.84ZM261.09 140.94C261.09 140.16 260.49 139.6 259.63 139.6C258.77 139.6 258.15 140.16 258.15 140.94C258.15 141.7 258.77 142.28 259.63 142.28C260.49 142.28 261.09 141.7 261.09 140.94ZM260.65 154V143.4H258.63V154H260.65ZM269.435 152.04C269.015 152.24 268.595 152.32 268.115 152.32C267.035 152.32 266.335 151.8 266.335 150.34V145.12H269.535V143.4H266.335V140.26H264.315V143.4H261.975V145.12H264.315V150.8C264.315 153.14 265.675 154.2 267.635 154.2C268.275 154.2 268.815 154.1 269.435 153.82V152.04ZM282.062 154H283.742V147.2C283.742 144.68 282.222 143.2 279.602 143.2C277.122 143.2 275.422 144.78 275.322 147.16H277.162C277.222 145.68 278.122 144.8 279.602 144.8C281.002 144.8 281.822 145.66 281.822 147.18V147.96C280.962 147.86 280.462 147.84 279.842 147.84C276.682 147.84 275.022 148.92 275.022 151C275.022 152.94 276.462 154.2 278.662 154.2C280.222 154.2 281.402 153.54 282.062 152.36V154ZM276.942 150.94C276.942 149.7 277.942 149.1 279.962 149.1C280.482 149.1 281.042 149.12 281.822 149.22V150.08C281.822 151.7 280.762 152.76 279.062 152.76C277.762 152.76 276.942 152.04 276.942 150.94ZM288.463 154V147.92C288.463 146.14 289.563 144.98 290.963 144.98C292.443 144.98 293.223 146.02 293.223 147.78V154H295.243V147.92C295.243 146.14 296.363 144.98 297.743 144.98C299.223 144.98 300.003 146.02 300.003 147.78V154H302.023V147.14C302.023 144.62 300.623 143.2 298.443 143.2C296.823 143.2 295.603 144.04 294.863 145.4C294.383 144 293.203 143.2 291.643 143.2C290.183 143.2 289.043 143.94 288.323 145.16V143.4H286.443V154H288.463ZM309.084 154.2C311.584 154.2 313.404 152.78 313.924 150.42H311.924C311.584 151.8 310.544 152.62 309.044 152.62C307.264 152.62 306.184 151.36 306.024 149.2H313.924C314.284 145.76 312.184 143.2 309.024 143.2C306.104 143.2 303.964 145.5 303.964 148.64C303.964 151.98 306.024 154.2 309.084 154.2ZM308.984 144.72C310.624 144.72 311.684 145.9 311.784 147.86H306.044C306.264 145.88 307.364 144.72 308.984 144.72ZM322.013 152.04C321.593 152.24 321.173 152.32 320.693 152.32C319.613 152.32 318.913 151.8 318.913 150.34V145.12H322.113V143.4H318.913V140.26H316.893V143.4H314.553V145.12H316.893V150.8C316.893 153.14 318.253 154.2 320.213 154.2C320.853 154.2 321.393 154.1 322.013 153.82V152.04ZM61.58 184.22C64.24 184.22 66.12 182.5 66.48 179.7H64.38C64.14 181.42 63.1 182.42 61.6 182.42C59.86 182.42 58.72 180.96 58.72 178.7C58.72 176.46 59.86 174.98 61.6 174.98C63.08 174.98 64.14 176 64.36 177.7H66.48C66.1 174.94 64.2 173.2 61.58 173.2C58.72 173.2 56.64 175.5 56.64 178.7C56.64 181.94 58.68 184.22 61.58 184.22ZM72.8556 184.2C75.8556 184.2 78.0556 181.84 78.0556 178.7C78.0556 175.56 75.8556 173.2 72.8556 173.2C69.8556 173.2 67.6556 175.56 67.6556 178.7C67.6556 181.84 69.8556 184.2 72.8556 184.2ZM72.8556 182.42C71.1156 182.42 69.7556 181.02 69.7556 178.7C69.7556 176.38 71.1156 175 72.8556 175C74.5956 175 75.9756 176.38 75.9756 178.7C75.9756 181.02 74.5956 182.42 72.8556 182.42ZM82.1348 178.02C82.1348 176.14 83.2948 174.98 84.6748 174.98C86.1748 174.98 86.9748 176 86.9748 177.82V184H88.9948V177.14C88.9948 174.6 87.5548 173.2 85.3748 173.2C83.9148 173.2 82.7148 173.98 81.9948 175.16V173.4H80.1148V184H82.1348V178.02ZM100.077 180.84C100.077 179.32 99.0773 178.4 96.9773 178.02L95.1773 177.68C93.8973 177.44 93.3573 177.04 93.3573 176.18C93.3573 175.26 94.2173 174.72 95.4973 174.72C96.9173 174.72 97.8573 175.46 97.9773 176.74H99.9173C99.7373 174.56 98.0173 173.2 95.4773 173.2C93.0173 173.2 91.3973 174.5 91.3973 176.36C91.3973 177.96 92.4973 178.96 94.4573 179.34L96.1773 179.66C97.4973 179.92 98.0373 180.3 98.0373 181.18C98.0373 182.18 97.0973 182.68 95.6773 182.68C94.0573 182.68 92.9973 181.86 92.9173 180.54H90.9773C91.1773 182.82 92.8373 184.2 95.6373 184.2C98.4573 184.2 100.077 182.92 100.077 180.84ZM106.643 184.2C109.143 184.2 110.963 182.78 111.483 180.42H109.483C109.143 181.8 108.103 182.62 106.603 182.62C104.823 182.62 103.743 181.36 103.583 179.2H111.483C111.843 175.76 109.743 173.2 106.583 173.2C103.663 173.2 101.523 175.5 101.523 178.64C101.523 181.98 103.583 184.2 106.643 184.2ZM106.543 174.72C108.183 174.72 109.243 175.9 109.343 177.86H103.603C103.823 175.88 104.923 174.72 106.543 174.72ZM116.078 182.56C116.078 181.62 115.458 180.98 114.538 180.98C113.638 180.98 112.998 181.62 112.998 182.56C112.998 183.46 113.638 184.1 114.538 184.1C115.458 184.1 116.078 183.46 116.078 182.56ZM129.433 184H131.312L135.873 173V184H137.913V169.64H135.193L130.393 181.3L125.573 169.64H122.873V184H124.893V173.02L129.433 184ZM147.277 184H148.957V177.2C148.957 174.68 147.437 173.2 144.817 173.2C142.337 173.2 140.637 174.78 140.537 177.16H142.377C142.437 175.68 143.337 174.8 144.817 174.8C146.217 174.8 147.037 175.66 147.037 177.18V177.96C146.177 177.86 145.677 177.84 145.057 177.84C141.897 177.84 140.237 178.92 140.237 181C140.237 182.94 141.677 184.2 143.877 184.2C145.437 184.2 146.617 183.54 147.277 182.36V184ZM142.157 180.94C142.157 179.7 143.157 179.1 145.177 179.1C145.697 179.1 146.257 179.12 147.037 179.22V180.08C147.037 181.7 145.977 182.76 144.277 182.76C142.977 182.76 142.157 182.04 142.157 180.94ZM158.278 179.64C158.278 181.3 157.178 182.42 155.818 182.42C154.498 182.42 153.578 181.66 153.578 179.82V173.4H151.558V180.22C151.558 182.94 153.038 184.2 155.178 184.2C156.618 184.2 157.858 183.42 158.418 182.32V184H160.298V173.4H158.278V179.64ZM165.123 178.58C165.123 176.24 166.783 175.24 169.063 175.36V173.26C167.323 173.26 165.723 174.18 164.983 175.64V173.4H163.103V184H165.123V178.58ZM173.122 170.94C173.122 170.16 172.522 169.6 171.662 169.6C170.802 169.6 170.182 170.16 170.182 170.94C170.182 171.7 170.802 172.28 171.662 172.28C172.522 172.28 173.122 171.7 173.122 170.94ZM172.682 184V173.4H170.662V184H172.682ZM183.886 180.84C183.886 179.32 182.886 178.4 180.786 178.02L178.986 177.68C177.706 177.44 177.166 177.04 177.166 176.18C177.166 175.26 178.026 174.72 179.306 174.72C180.726 174.72 181.666 175.46 181.786 176.74H183.726C183.546 174.56 181.826 173.2 179.286 173.2C176.826 173.2 175.206 174.5 175.206 176.36C175.206 177.96 176.306 178.96 178.266 179.34L179.986 179.66C181.306 179.92 181.846 180.3 181.846 181.18C181.846 182.18 180.906 182.68 179.486 182.68C177.866 182.68 176.806 181.86 176.726 180.54H174.786C174.986 182.82 176.646 184.2 179.446 184.2C182.266 184.2 183.886 182.92 183.886 180.84ZM199.071 173.4H197.011L194.031 181.68L191.091 173.4H188.911L192.891 184H195.091L199.071 173.4ZM204.613 184.2C207.613 184.2 209.813 181.84 209.813 178.7C209.813 175.56 207.613 173.2 204.613 173.2C201.613 173.2 199.413 175.56 199.413 178.7C199.413 181.84 201.613 184.2 204.613 184.2ZM204.613 182.42C202.873 182.42 201.513 181.02 201.513 178.7C201.513 176.38 202.873 175 204.613 175C206.353 175 207.733 176.38 207.733 178.7C207.733 181.02 206.353 182.42 204.613 182.42ZM213.913 184V169.64H211.873V184H213.913ZM223.336 179.64C223.336 181.3 222.236 182.42 220.876 182.42C219.556 182.42 218.636 181.66 218.636 179.82V173.4H216.616V180.22C216.616 182.94 218.096 184.2 220.236 184.2C221.676 184.2 222.916 183.42 223.476 182.32V184H225.356V173.4H223.336V179.64ZM234.142 182.04C233.722 182.24 233.302 182.32 232.822 182.32C231.742 182.32 231.042 181.8 231.042 180.34V175.12H234.242V173.4H231.042V170.26H229.022V173.4H226.682V175.12H229.022V180.8C229.022 183.14 230.382 184.2 232.342 184.2C232.982 184.2 233.522 184.1 234.142 183.82V182.04ZM246.29 178.7C246.29 175.5 244.43 173.2 241.61 173.2C240.11 173.2 238.81 173.98 238.05 175.34V173.4H236.17V187.86H238.19V182.2C238.95 183.48 240.17 184.2 241.61 184.2C244.45 184.2 246.29 181.9 246.29 178.7ZM244.19 178.7C244.19 181.08 242.93 182.4 241.19 182.4C239.49 182.4 238.19 181.04 238.19 178.7C238.19 176.32 239.51 174.98 241.19 174.98C242.93 174.98 244.19 176.32 244.19 178.7ZM254.758 184H256.438V177.2C256.438 174.68 254.918 173.2 252.298 173.2C249.818 173.2 248.118 174.78 248.018 177.16H249.858C249.918 175.68 250.818 174.8 252.298 174.8C253.698 174.8 254.518 175.66 254.518 177.18V177.96C253.658 177.86 253.158 177.84 252.538 177.84C249.378 177.84 247.718 178.92 247.718 181C247.718 182.94 249.158 184.2 251.358 184.2C252.918 184.2 254.098 183.54 254.758 182.36V184ZM249.638 180.94C249.638 179.7 250.638 179.1 252.658 179.1C253.178 179.1 253.738 179.12 254.518 179.22V180.08C254.518 181.7 253.458 182.76 251.758 182.76C250.458 182.76 249.638 182.04 249.638 180.94ZM265.021 182.04C264.601 182.24 264.181 182.32 263.701 182.32C262.621 182.32 261.921 181.8 261.921 180.34V175.12H265.121V173.4H261.921V170.26H259.901V173.4H257.561V175.12H259.901V180.8C259.901 183.14 261.261 184.2 263.221 184.2C263.861 184.2 264.401 184.1 265.021 183.82V182.04ZM275.588 184.2C278.088 184.2 279.908 182.78 280.428 180.42H278.428C278.088 181.8 277.048 182.62 275.548 182.62C273.768 182.62 272.688 181.36 272.528 179.2H280.428C280.788 175.76 278.688 173.2 275.528 173.2C272.608 173.2 270.468 175.5 270.468 178.64C270.468 181.98 272.528 184.2 275.588 184.2ZM275.488 174.72C277.128 174.72 278.188 175.9 278.288 177.86H272.548C272.768 175.88 273.868 174.72 275.488 174.72ZM284.616 184V169.64H282.576V184H284.616ZM289.88 170.94C289.88 170.16 289.28 169.6 288.42 169.6C287.56 169.6 286.94 170.16 286.94 170.94C286.94 171.7 287.56 172.28 288.42 172.28C289.28 172.28 289.88 171.7 289.88 170.94ZM289.44 184V173.4H287.42V184H289.44ZM298.224 182.04C297.804 182.24 297.384 182.32 296.904 182.32C295.824 182.32 295.124 181.8 295.124 180.34V175.12H298.324V173.4H295.124V170.26H293.104V173.4H290.764V175.12H293.104V180.8C293.104 183.14 294.464 184.2 296.424 184.2C297.064 184.2 297.604 184.1 298.224 183.82V182.04ZM312.831 180.84C312.831 179.32 311.831 178.4 309.731 178.02L307.931 177.68C306.651 177.44 306.111 177.04 306.111 176.18C306.111 175.26 306.971 174.72 308.251 174.72C309.671 174.72 310.611 175.46 310.731 176.74H312.671C312.491 174.56 310.771 173.2 308.231 173.2C305.771 173.2 304.151 174.5 304.151 176.36C304.151 177.96 305.251 178.96 307.211 179.34L308.931 179.66C310.251 179.92 310.791 180.3 310.791 181.18C310.791 182.18 309.851 182.68 308.431 182.68C306.811 182.68 305.751 181.86 305.671 180.54H303.731C303.931 182.82 305.591 184.2 308.391 184.2C311.211 184.2 312.831 182.92 312.831 180.84ZM319.397 184.2C321.897 184.2 323.717 182.78 324.237 180.42H322.237C321.897 181.8 320.857 182.62 319.357 182.62C317.577 182.62 316.497 181.36 316.337 179.2H324.237C324.597 175.76 322.497 173.2 319.337 173.2C316.417 173.2 314.277 175.5 314.277 178.64C314.277 181.98 316.337 184.2 319.397 184.2ZM319.297 174.72C320.937 174.72 321.997 175.9 322.097 177.86H316.357C316.577 175.88 317.677 174.72 319.297 174.72ZM325.429 178.7C325.429 181.88 327.269 184.2 330.129 184.2C331.629 184.2 332.909 183.44 333.669 182.1V184H335.549V169.64H333.529V175.22C332.789 173.92 331.549 173.2 330.129 173.2C327.269 173.2 325.429 175.48 325.429 178.7ZM327.529 178.7C327.529 176.3 328.769 174.98 330.529 174.98C332.209 174.98 333.529 176.28 333.529 178.66C333.529 181 332.249 182.4 330.529 182.4C328.769 182.4 327.529 181.06 327.529 178.7ZM63.38 212.04C62.96 212.24 62.54 212.32 62.06 212.32C60.98 212.32 60.28 211.8 60.28 210.34V205.12H63.48V203.4H60.28V200.26H58.26V203.4H55.92V205.12H58.26V210.8C58.26 213.14 59.62 214.2 61.58 214.2C62.22 214.2 62.76 214.1 63.38 213.82V212.04ZM69.4748 214.2C71.9748 214.2 73.7948 212.78 74.3148 210.42H72.3148C71.9748 211.8 70.9348 212.62 69.4348 212.62C67.6548 212.62 66.5748 211.36 66.4148 209.2H74.3148C74.6748 205.76 72.5748 203.2 69.4148 203.2C66.4948 203.2 64.3548 205.5 64.3548 208.64C64.3548 211.98 66.4148 214.2 69.4748 214.2ZM69.3748 204.72C71.0148 204.72 72.0748 205.9 72.1748 207.86H66.4348C66.6548 205.88 67.7548 204.72 69.3748 204.72ZM78.5025 214V199.64H76.4625V214H78.5025ZM83.3463 214V199.64H81.3063V214H83.3463ZM92.77 209.64C92.77 211.3 91.67 212.42 90.31 212.42C88.99 212.42 88.07 211.66 88.07 209.82V203.4H86.05V210.22C86.05 212.94 87.53 214.2 89.67 214.2C91.11 214.2 92.35 213.42 92.91 212.32V214H94.79V203.4H92.77V209.64ZM105.995 210.84C105.995 209.32 104.995 208.4 102.895 208.02L101.095 207.68C99.8153 207.44 99.2753 207.04 99.2753 206.18C99.2753 205.26 100.135 204.72 101.415 204.72C102.835 204.72 103.775 205.46 103.895 206.74H105.835C105.655 204.56 103.935 203.2 101.395 203.2C98.9353 203.2 97.3153 204.5 97.3153 206.36C97.3153 207.96 98.4153 208.96 100.375 209.34L102.095 209.66C103.415 209.92 103.955 210.3 103.955 211.18C103.955 212.18 103.015 212.68 101.595 212.68C99.9753 212.68 98.9153 211.86 98.8353 210.54H96.8953C97.0953 212.82 98.7553 214.2 101.555 214.2C104.375 214.2 105.995 212.92 105.995 210.84ZM120.78 210.84C120.78 209.32 119.78 208.4 117.68 208.02L115.88 207.68C114.6 207.44 114.06 207.04 114.06 206.18C114.06 205.26 114.92 204.72 116.2 204.72C117.62 204.72 118.56 205.46 118.68 206.74H120.62C120.44 204.56 118.72 203.2 116.18 203.2C113.72 203.2 112.1 204.5 112.1 206.36C112.1 207.96 113.2 208.96 115.16 209.34L116.88 209.66C118.2 209.92 118.74 210.3 118.74 211.18C118.74 212.18 117.8 212.68 116.38 212.68C114.76 212.68 113.7 211.86 113.62 210.54H111.68C111.88 212.82 113.54 214.2 116.34 214.2C119.16 214.2 120.78 212.92 120.78 210.84ZM129.606 209.64C129.606 211.3 128.506 212.42 127.146 212.42C125.826 212.42 124.906 211.66 124.906 209.82V203.4H122.886V210.22C122.886 212.94 124.366 214.2 126.506 214.2C127.946 214.2 129.186 213.42 129.746 212.32V214H131.626V203.4H129.606V209.64ZM142.831 210.84C142.831 209.32 141.831 208.4 139.731 208.02L137.931 207.68C136.651 207.44 136.111 207.04 136.111 206.18C136.111 205.26 136.971 204.72 138.251 204.72C139.671 204.72 140.611 205.46 140.731 206.74H142.671C142.491 204.56 140.771 203.2 138.231 203.2C135.771 203.2 134.151 204.5 134.151 206.36C134.151 207.96 135.251 208.96 137.211 209.34L138.931 209.66C140.251 209.92 140.791 210.3 140.791 211.18C140.791 212.18 139.851 212.68 138.431 212.68C136.811 212.68 135.751 211.86 135.671 210.54H133.731C133.931 212.82 135.591 214.2 138.391 214.2C141.211 214.2 142.831 212.92 142.831 210.84ZM149.217 214.22C151.877 214.22 153.757 212.5 154.117 209.7H152.017C151.777 211.42 150.737 212.42 149.237 212.42C147.497 212.42 146.357 210.96 146.357 208.7C146.357 206.46 147.497 204.98 149.237 204.98C150.717 204.98 151.777 206 151.997 207.7H154.117C153.737 204.94 151.837 203.2 149.217 203.2C146.357 203.2 144.277 205.5 144.277 208.7C144.277 211.94 146.317 214.22 149.217 214.22ZM158.61 200.94C158.61 200.16 158.01 199.6 157.15 199.6C156.29 199.6 155.67 200.16 155.67 200.94C155.67 201.7 156.29 202.28 157.15 202.28C158.01 202.28 158.61 201.7 158.61 200.94ZM158.17 214V203.4H156.15V214H158.17ZM171.094 208.7C171.094 205.5 169.234 203.2 166.414 203.2C164.914 203.2 163.614 203.98 162.854 205.34V203.4H160.974V217.86H162.994V212.2C163.754 213.48 164.974 214.2 166.414 214.2C169.254 214.2 171.094 211.9 171.094 208.7ZM168.994 208.7C168.994 211.08 167.734 212.4 165.994 212.4C164.294 212.4 162.994 211.04 162.994 208.7C162.994 206.32 164.314 204.98 165.994 204.98C167.734 204.98 168.994 206.32 168.994 208.7ZM175.602 200.94C175.602 200.16 175.002 199.6 174.142 199.6C173.282 199.6 172.662 200.16 172.662 200.94C172.662 201.7 173.282 202.28 174.142 202.28C175.002 202.28 175.602 201.7 175.602 200.94ZM175.162 214V203.4H173.142V214H175.162ZM183.946 212.04C183.526 212.24 183.106 212.32 182.626 212.32C181.546 212.32 180.846 211.8 180.846 210.34V205.12H184.046V203.4H180.846V200.26H178.826V203.4H176.486V205.12H178.826V210.8C178.826 213.14 180.186 214.2 182.146 214.2C182.786 214.2 183.326 214.1 183.946 213.82V212.04ZM194.514 214.2C197.014 214.2 198.834 212.78 199.354 210.42H197.354C197.014 211.8 195.974 212.62 194.474 212.62C192.694 212.62 191.614 211.36 191.454 209.2H199.354C199.714 205.76 197.614 203.2 194.454 203.2C191.534 203.2 189.394 205.5 189.394 208.64C189.394 211.98 191.454 214.2 194.514 214.2ZM194.414 204.72C196.054 204.72 197.114 205.9 197.214 207.86H191.474C191.694 205.88 192.794 204.72 194.414 204.72ZM208.122 209.64C208.122 211.3 207.022 212.42 205.662 212.42C204.342 212.42 203.422 211.66 203.422 209.82V203.4H201.402V210.22C201.402 212.94 202.882 214.2 205.022 214.2C206.462 214.2 207.702 213.42 208.262 212.32V214H210.142V203.4H208.122V209.64ZM215.407 200.94C215.407 200.16 214.807 199.6 213.947 199.6C213.087 199.6 212.467 200.16 212.467 200.94C212.467 201.7 213.087 202.28 213.947 202.28C214.807 202.28 215.407 201.7 215.407 200.94ZM214.967 214V203.4H212.947V214H214.967ZM226.171 210.84C226.171 209.32 225.171 208.4 223.071 208.02L221.271 207.68C219.991 207.44 219.451 207.04 219.451 206.18C219.451 205.26 220.311 204.72 221.591 204.72C223.011 204.72 223.951 205.46 224.071 206.74H226.011C225.831 204.56 224.111 203.2 221.571 203.2C219.111 203.2 217.491 204.5 217.491 206.36C217.491 207.96 218.591 208.96 220.551 209.34L222.271 209.66C223.591 209.92 224.131 210.3 224.131 211.18C224.131 212.18 223.191 212.68 221.771 212.68C220.151 212.68 219.091 211.86 219.011 210.54H217.071C217.271 212.82 218.931 214.2 221.731 214.2C224.551 214.2 226.171 212.92 226.171 210.84ZM234.576 214V207.92C234.576 206.14 235.676 204.98 237.076 204.98C238.556 204.98 239.336 206.02 239.336 207.78V214H241.356V207.92C241.356 206.14 242.476 204.98 243.856 204.98C245.336 204.98 246.116 206.02 246.116 207.78V214H248.136V207.14C248.136 204.62 246.736 203.2 244.556 203.2C242.936 203.2 241.716 204.04 240.976 205.4C240.496 204 239.316 203.2 237.756 203.2C236.296 203.2 235.156 203.94 234.436 205.16V203.4H232.556V214H234.576ZM255.278 214.2C258.278 214.2 260.478 211.84 260.478 208.7C260.478 205.56 258.278 203.2 255.278 203.2C252.278 203.2 250.078 205.56 250.078 208.7C250.078 211.84 252.278 214.2 255.278 214.2ZM255.278 212.42C253.538 212.42 252.178 211.02 252.178 208.7C252.178 206.38 253.538 205 255.278 205C257.018 205 258.398 206.38 258.398 208.7C258.398 211.02 257.018 212.42 255.278 212.42ZM261.777 208.7C261.777 211.88 263.617 214.2 266.477 214.2C267.977 214.2 269.257 213.44 270.017 212.1V214H271.897V199.64H269.877V205.22C269.137 203.92 267.897 203.2 266.477 203.2C263.617 203.2 261.777 205.48 261.777 208.7ZM263.877 208.7C263.877 206.3 265.117 204.98 266.877 204.98C268.557 204.98 269.877 206.28 269.877 208.66C269.877 211 268.597 212.4 266.877 212.4C265.117 212.4 263.877 211.06 263.877 208.7ZM277.445 212.56C277.445 211.62 276.825 210.98 275.905 210.98C275.005 210.98 274.365 211.62 274.365 212.56C274.365 213.46 275.005 214.1 275.905 214.1C276.825 214.1 277.445 213.46 277.445 212.56ZM287.02 201.46C287.02 200.3 286.4 199.52 285.34 199.52C284.46 199.52 283.86 200.06 283.86 200.86C283.86 201.54 284.4 202.1 285.16 202.1C285.3 202.1 285.46 202.08 285.62 202.02C285.44 202.9 284.64 203.46 283.52 203.4V204.48C285.52 204.64 287.02 203.18 287.02 201.46ZM291.28 201.46C291.28 200.3 290.66 199.52 289.6 199.52C288.72 199.52 288.12 200.06 288.12 200.86C288.12 201.54 288.66 202.1 289.4 202.1C289.56 202.1 289.72 202.08 289.88 202.02C289.7 202.9 288.9 203.46 287.78 203.4V204.48C289.78 204.64 291.28 203.18 291.28 201.46Z" fill="#1E2432"/>
<path d="M75.296 62.28C75.296 58.856 73.088 57.128 69.152 56.328L65.76 55.656C63.616 55.208 61.728 54.44 61.728 52.264C61.728 50.28 63.36 48.52 66.336 48.52C69.216 48.52 71.2 50.44 71.392 53.192H74.976C74.688 48.616 71.072 45.704 66.304 45.704C61.536 45.704 58.144 48.616 58.144 52.488C58.144 56.392 61.088 58.024 64.32 58.664L67.648 59.304C70.304 59.88 71.552 60.84 71.552 62.76C71.552 65.128 69.376 66.504 66.464 66.504C62.944 66.504 61.088 64.616 60.928 61.704H57.344C57.632 66.28 60.992 69.32 66.528 69.32C72.096 69.32 75.296 66.28 75.296 62.28ZM89.3945 62.024C89.3945 64.68 87.6345 66.472 85.4585 66.472C83.3465 66.472 81.8745 65.256 81.8745 62.312V52.04H78.6425V62.952C78.6425 67.304 81.0105 69.32 84.4345 69.32C86.7385 69.32 88.7225 68.072 89.6185 66.312V69H92.6265V52.04H89.3945V62.024ZM110.555 63.944C110.555 61.512 108.955 60.04 105.595 59.432L102.715 58.888C100.667 58.504 99.803 57.864 99.803 56.488C99.803 55.016 101.179 54.152 103.227 54.152C105.499 54.152 107.003 55.336 107.195 57.384H110.299C110.011 53.896 107.259 51.72 103.195 51.72C99.259 51.72 96.667 53.8 96.667 56.776C96.667 59.336 98.427 60.936 101.563 61.544L104.315 62.056C106.427 62.472 107.291 63.08 107.291 64.488C107.291 66.088 105.787 66.888 103.515 66.888C100.923 66.888 99.227 65.576 99.099 63.464H95.995C96.315 67.112 98.971 69.32 103.451 69.32C107.963 69.32 110.555 67.272 110.555 63.944ZM124.356 69H127.044V58.12C127.044 54.088 124.612 51.72 120.42 51.72C116.452 51.72 113.732 54.248 113.572 58.056H116.516C116.612 55.688 118.052 54.28 120.42 54.28C122.66 54.28 123.972 55.656 123.972 58.088V59.336C122.596 59.176 121.796 59.144 120.804 59.144C115.748 59.144 113.092 60.872 113.092 64.2C113.092 67.304 115.396 69.32 118.916 69.32C121.412 69.32 123.3 68.264 124.356 66.376V69ZM116.164 64.104C116.164 62.12 117.764 61.16 120.996 61.16C121.828 61.16 122.724 61.192 123.972 61.352V62.728C123.972 65.32 122.276 67.016 119.556 67.016C117.476 67.016 116.164 65.864 116.164 64.104ZM134.597 59.432C134.597 56.424 136.453 54.568 138.661 54.568C141.061 54.568 142.341 56.2 142.341 59.112V69H145.573V58.024C145.573 53.96 143.269 51.72 139.781 51.72C137.445 51.72 135.525 52.968 134.373 54.856V52.04H131.365V69H134.597V59.432ZM160.329 69V60.36H164.553L170.281 69H174.505L168.265 59.848C171.753 59.016 173.833 56.488 173.833 53.192C173.833 48.616 170.665 46.024 165.385 46.024H156.809V69H160.329ZM160.329 48.968H165.161C168.425 48.968 170.281 50.44 170.281 53.192C170.281 55.976 168.425 57.416 165.161 57.416H160.329V48.968ZM183.81 69.32C187.81 69.32 190.722 67.048 191.554 63.272H188.354C187.81 65.48 186.146 66.792 183.746 66.792C180.898 66.792 179.17 64.776 178.914 61.32H191.554C192.13 55.816 188.77 51.72 183.714 51.72C179.042 51.72 175.618 55.4 175.618 60.424C175.618 65.768 178.914 69.32 183.81 69.32ZM183.65 54.152C186.274 54.152 187.97 56.04 188.13 59.176H178.946C179.298 56.008 181.058 54.152 183.65 54.152ZM208.539 52.04H205.275L200.699 64.968L195.771 52.04H192.283L198.971 68.776L196.539 75.176H200.059L208.539 52.04ZM217.279 69.32C221.279 69.32 224.191 67.048 225.023 63.272H221.823C221.279 65.48 219.615 66.792 217.215 66.792C214.367 66.792 212.639 64.776 212.383 61.32H225.023C225.599 55.816 222.239 51.72 217.183 51.72C212.511 51.72 209.087 55.4 209.087 60.424C209.087 65.768 212.383 69.32 217.279 69.32ZM217.119 54.152C219.743 54.152 221.439 56.04 221.599 59.176H212.415C212.766 56.008 214.527 54.152 217.119 54.152ZM241.899 63.944C241.899 61.512 240.299 60.04 236.939 59.432L234.059 58.888C232.011 58.504 231.147 57.864 231.147 56.488C231.147 55.016 232.523 54.152 234.571 54.152C236.843 54.152 238.347 55.336 238.539 57.384H241.643C241.355 53.896 238.603 51.72 234.539 51.72C230.603 51.72 228.011 53.8 228.011 56.776C228.011 59.336 229.771 60.936 232.907 61.544L235.659 62.056C237.771 62.472 238.635 63.08 238.635 64.488C238.635 66.088 237.131 66.888 234.859 66.888C232.267 66.888 230.571 65.576 230.443 63.464H227.339C227.659 67.112 230.315 69.32 234.795 69.32C239.307 69.32 241.899 67.272 241.899 63.944Z" fill="#1E2432"/>
<path d="M63.798 97.152H59.164V94.744H63.28V92.91H59.164V90.796H63.7V88.948H57.036V99H63.798V97.152ZM71.9962 99H74.0822V88.948H72.1222V95.612L67.7402 88.948H65.4442V99H67.3902V91.986L71.9962 99ZM80.6433 99V90.866H83.8213V88.948H75.3513V90.866H78.5153V99H80.6433ZM87.2187 99V95.444H88.5487L90.8167 99H93.3507L90.7607 95.122C92.1887 94.646 93.0287 93.568 93.0287 92.21C93.0287 90.124 91.5587 88.948 89.0247 88.948H85.0907V99H87.2187ZM87.2187 90.712H88.9267C90.2147 90.712 90.9007 91.216 90.9007 92.21C90.9007 93.19 90.2147 93.694 88.9267 93.694H87.2187V90.712ZM101.437 97.152H96.8027V94.744H100.919V92.91H96.8027V90.796H101.339V88.948H94.6747V99H101.437V97.152ZM106.793 95.724C109.243 95.724 110.769 94.478 110.769 92.294C110.769 90.11 109.243 88.948 106.793 88.948H103.083V99H105.211V95.724H106.793ZM106.779 90.74C107.983 90.74 108.655 91.314 108.655 92.308C108.655 93.302 107.983 93.932 106.779 93.932H105.211V90.74H106.779ZM114.344 99V95.444H115.674L117.942 99H120.476L117.886 95.122C119.314 94.646 120.154 93.568 120.154 92.21C120.154 90.124 118.684 88.948 116.15 88.948H112.216V99H114.344ZM114.344 90.712H116.052C117.34 90.712 118.026 91.216 118.026 92.21C118.026 93.19 117.34 93.694 116.052 93.694H114.344V90.712ZM128.562 97.152H123.928V94.744H128.044V92.91H123.928V90.796H128.464V88.948H121.8V99H128.562V97.152ZM136.76 99H138.846V88.948H136.886V95.612L132.504 88.948H130.208V99H132.154V91.986L136.76 99ZM147.675 97.152H143.041V94.744H147.157V92.91H143.041V90.796H147.577V88.948H140.913V99H147.675V97.152ZM157.567 88.948H155.439V95.22C155.439 96.466 154.837 97.306 153.437 97.306C152.023 97.306 151.421 96.466 151.421 95.22V88.948H149.293V95.178C149.293 97.558 150.777 99.21 153.437 99.21C156.055 99.21 157.567 97.558 157.567 95.178V88.948ZM161.73 99V95.444H163.06L165.328 99H167.862L165.272 95.122C166.7 94.646 167.54 93.568 167.54 92.21C167.54 90.124 166.07 88.948 163.536 88.948H159.602V99H161.73ZM161.73 90.712H163.438C164.726 90.712 165.412 91.216 165.412 92.21C165.412 93.19 164.726 93.694 163.438 93.694H161.73V90.712ZM178.594 93.512C177.964 92.826 177.684 92.448 177.684 91.93C177.684 91.356 178.09 90.95 178.636 90.95C179.21 90.95 179.616 91.3 179.686 91.958H181.492C181.478 90.418 180.344 89.396 178.636 89.396C176.942 89.396 175.682 90.46 175.682 91.916C175.682 92.49 175.85 92.994 176.2 93.484C175.136 94.086 174.492 94.982 174.492 96.046C174.492 97.922 175.836 99.126 177.936 99.126C178.86 99.126 179.714 98.776 180.47 98.118L181.296 99H183.69L181.59 96.732C182.01 95.948 182.29 94.982 182.304 94.142H180.526C180.512 94.59 180.47 95.038 180.386 95.444L178.594 93.512ZM176.354 95.934C176.354 95.36 176.676 94.898 177.194 94.632L179.476 97.054C179.084 97.376 178.594 97.544 178.076 97.544C176.942 97.544 176.354 96.83 176.354 95.934ZM192.263 99.21C195.469 99.21 197.457 96.858 197.331 93.582H192.151V95.276H195.063C194.783 96.522 193.845 97.404 192.361 97.404C190.345 97.404 189.267 95.92 189.267 93.988C189.267 91.832 190.499 90.642 192.123 90.642C193.467 90.642 194.391 91.412 194.699 92.434H197.205C196.547 90.25 194.727 88.738 192.179 88.738C189.239 88.738 187.083 90.964 187.083 93.932C187.083 97.04 189.351 99.21 192.263 99.21ZM200.941 99V95.444H202.271L204.539 99H207.073L204.483 95.122C205.911 94.646 206.751 93.568 206.751 92.21C206.751 90.124 205.281 88.948 202.747 88.948H198.813V99H200.941ZM200.941 90.712H202.649C203.937 90.712 204.623 91.216 204.623 92.21C204.623 93.19 203.937 93.694 202.649 93.694H200.941V90.712ZM212.893 99.21C215.805 99.21 218.059 96.97 218.059 93.96C218.059 90.95 215.805 88.738 212.893 88.738C209.995 88.738 207.755 90.95 207.755 93.96C207.755 96.97 209.995 99.21 212.893 99.21ZM212.893 97.306C211.059 97.306 209.939 95.808 209.939 93.96C209.939 92.112 211.059 90.642 212.893 90.642C214.741 90.642 215.861 92.112 215.861 93.96C215.861 95.808 214.741 97.306 212.893 97.306ZM226.842 99H228.998L231.588 88.948H229.502L227.864 95.794L226.072 88.948H223.902L222.054 95.766L220.43 88.948H218.358L220.934 99H223.09L224.966 91.972L226.842 99ZM237.282 99V90.866H240.46V88.948H231.99V90.866H235.154V99H237.282ZM243.857 99V94.744H248.211V99H250.339V88.948H248.211V92.91H243.857V88.948H241.729V99H243.857ZM257.461 99V94.744H261.815V99H263.943V88.948H261.815V92.91H257.461V88.948H255.333V99H257.461ZM272.731 99H275.013L271.261 88.948H268.937L265.157 99H267.299L268.069 96.844H271.975L272.731 99ZM270.043 91.272L271.387 95.15H268.671L270.043 91.272ZM280.101 99.21C282.747 99.21 284.819 97.46 285.169 94.856H282.915C282.663 96.298 281.557 97.306 280.129 97.306C278.407 97.306 277.245 95.934 277.245 93.96C277.245 92 278.407 90.642 280.129 90.642C281.557 90.642 282.677 91.636 282.915 93.078H285.169C284.819 90.502 282.747 88.738 280.101 88.738C277.273 88.738 275.061 91.02 275.061 93.96C275.061 96.914 277.273 99.21 280.101 99.21ZM288.783 99V94.408L292.367 99H294.985L290.883 93.764L294.873 88.948H292.437L288.783 93.372V88.948H286.655V99H288.783ZM302.933 97.152H298.299V94.744H302.415V92.91H298.299V90.796H302.835V88.948H296.171V99H302.933V97.152ZM306.707 99V95.444H308.037L310.305 99H312.839L310.249 95.122C311.677 94.646 312.517 93.568 312.517 92.21C312.517 90.124 311.047 88.948 308.513 88.948H304.579V99H306.707ZM306.707 90.712H308.415C309.703 90.712 310.389 91.216 310.389 92.21C310.389 93.19 309.703 93.694 308.415 93.694H306.707V90.712Z" fill="#009AFF"/>
<defs>
<filter id="filter0_d_1613_942" x="0" y="0" width="387" height="290" filterUnits="userSpaceOnUse" color-interpolation-filters="sRGB">
<feFlood flood-opacity="0" result="BackgroundImageFix"/>
<feColorMatrix in="SourceAlpha" type="matrix" values="0 0 0 0 0 0 0 0 0 0 0 0 0 0 0 0 0 0 127 0" result="hardAlpha"/>
<feOffset dy="4"/>
<feGaussianBlur stdDeviation="10"/>
<feColorMatrix type="matrix" values="0 0 0 0 0.00392157 0 0 0 0 0.0941176 0 0 0 0 0.160784 0 0 0 0.1 0"/>
<feBlend mode="normal" in2="BackgroundImageFix" result="effect1_dropShadow_1613_942"/>
<feBlend mode="normal" in="SourceGraphic" in2="effect1_dropShadow_1613_942" result="shape"/>
</filter>
</defs>
</svg>
